<mxfile host="app.diagrams.net" modified="2023-10-13T07:26:08.418Z" agent="Mozilla/5.0 (Windows NT 10.0; Win64; x64) AppleWebKit/537.36 (KHTML, like Gecko) Chrome/116.0.0.0 Safari/537.36 OPR/102.0.0.0" etag="lGHPmCI5TKMoAp5BXYC8" version="21.7.5" type="github">
  <diagram name="Page-1" id="0whdH7ljbWaGtrnMSD9N">
    <mxGraphModel dx="2020" dy="1101" grid="1" gridSize="10" guides="1" tooltips="1" connect="1" arrows="1" fold="1" page="1" pageScale="1" pageWidth="1100" pageHeight="850" math="0" shadow="0">
      <root>
        <mxCell id="0" />
        <mxCell id="1" parent="0" />
        <mxCell id="5KTpDNGWYPe7FhS2_ilG-1" style="edgeStyle=orthogonalEdgeStyle;rounded=0;orthogonalLoop=1;jettySize=auto;html=1;entryX=0;entryY=0.5;entryDx=0;entryDy=0;" edge="1" parent="1" source="5KTpDNGWYPe7FhS2_ilG-3" target="5KTpDNGWYPe7FhS2_ilG-5">
          <mxGeometry relative="1" as="geometry" />
        </mxCell>
        <mxCell id="5KTpDNGWYPe7FhS2_ilG-2" style="edgeStyle=orthogonalEdgeStyle;rounded=0;orthogonalLoop=1;jettySize=auto;html=1;entryX=0.5;entryY=0;entryDx=0;entryDy=0;" edge="1" parent="1" source="5KTpDNGWYPe7FhS2_ilG-3" target="5KTpDNGWYPe7FhS2_ilG-23">
          <mxGeometry relative="1" as="geometry" />
        </mxCell>
        <mxCell id="5KTpDNGWYPe7FhS2_ilG-3" value="podman" style="rounded=1;whiteSpace=wrap;html=1;fillColor=#dae8fc;strokeColor=#6c8ebf;" vertex="1" parent="1">
          <mxGeometry x="150" y="140" width="110" height="30" as="geometry" />
        </mxCell>
        <mxCell id="5KTpDNGWYPe7FhS2_ilG-4" style="edgeStyle=orthogonalEdgeStyle;rounded=0;orthogonalLoop=1;jettySize=auto;html=1;entryX=0;entryY=0.5;entryDx=0;entryDy=0;dashed=1;fillColor=#ffe6cc;strokeColor=#d79b00;exitX=1;exitY=0.5;exitDx=0;exitDy=0;" edge="1" parent="1" source="5KTpDNGWYPe7FhS2_ilG-5" target="5KTpDNGWYPe7FhS2_ilG-6">
          <mxGeometry relative="1" as="geometry">
            <Array as="points">
              <mxPoint x="490" y="155" />
              <mxPoint x="490" y="155" />
            </Array>
          </mxGeometry>
        </mxCell>
        <mxCell id="5KTpDNGWYPe7FhS2_ilG-5" value="conmon" style="rounded=0;whiteSpace=wrap;html=1;fillColor=#dae8fc;strokeColor=#6c8ebf;" vertex="1" parent="1">
          <mxGeometry x="350" y="140" width="90" height="30" as="geometry" />
        </mxCell>
        <mxCell id="5KTpDNGWYPe7FhS2_ilG-6" value="crun/runc" style="rounded=0;whiteSpace=wrap;html=1;fillColor=#ffe6cc;strokeColor=#d79b00;" vertex="1" parent="1">
          <mxGeometry x="530" y="140" width="90" height="30" as="geometry" />
        </mxCell>
        <mxCell id="5KTpDNGWYPe7FhS2_ilG-7" value="" style="endArrow=none;dashed=1;html=1;dashPattern=1 3;strokeWidth=2;rounded=0;" edge="1" parent="1">
          <mxGeometry width="50" height="50" relative="1" as="geometry">
            <mxPoint x="480" y="200" as="sourcePoint" />
            <mxPoint x="480" y="80" as="targetPoint" />
          </mxGeometry>
        </mxCell>
        <mxCell id="5KTpDNGWYPe7FhS2_ilG-8" value="&lt;b&gt;&lt;font color=&quot;#ff0000&quot; style=&quot;font-size: 14px;&quot;&gt;OCI&lt;/font&gt;&lt;/b&gt;" style="edgeLabel;html=1;align=center;verticalAlign=middle;resizable=0;points=[];" vertex="1" connectable="0" parent="5KTpDNGWYPe7FhS2_ilG-7">
          <mxGeometry x="0.7086" y="-1" relative="1" as="geometry">
            <mxPoint as="offset" />
          </mxGeometry>
        </mxCell>
        <mxCell id="5KTpDNGWYPe7FhS2_ilG-9" value="" style="endArrow=none;dashed=1;html=1;dashPattern=1 3;strokeWidth=2;rounded=0;" edge="1" parent="1">
          <mxGeometry width="50" height="50" relative="1" as="geometry">
            <mxPoint x="411" y="400" as="sourcePoint" />
            <mxPoint x="411" y="207.5" as="targetPoint" />
          </mxGeometry>
        </mxCell>
        <mxCell id="5KTpDNGWYPe7FhS2_ilG-10" value="&lt;b&gt;&lt;font color=&quot;#ff0000&quot; style=&quot;font-size: 14px;&quot;&gt;CNI&lt;/font&gt;&lt;/b&gt;" style="edgeLabel;html=1;align=center;verticalAlign=middle;resizable=0;points=[];" vertex="1" connectable="0" parent="5KTpDNGWYPe7FhS2_ilG-9">
          <mxGeometry x="0.7086" y="-1" relative="1" as="geometry">
            <mxPoint as="offset" />
          </mxGeometry>
        </mxCell>
        <mxCell id="5KTpDNGWYPe7FhS2_ilG-11" style="edgeStyle=orthogonalEdgeStyle;rounded=0;orthogonalLoop=1;jettySize=auto;html=1;entryX=0;entryY=0.5;entryDx=0;entryDy=0;" edge="1" parent="1" source="5KTpDNGWYPe7FhS2_ilG-13" target="5KTpDNGWYPe7FhS2_ilG-14">
          <mxGeometry relative="1" as="geometry" />
        </mxCell>
        <mxCell id="5KTpDNGWYPe7FhS2_ilG-12" style="edgeStyle=orthogonalEdgeStyle;rounded=0;orthogonalLoop=1;jettySize=auto;html=1;entryX=0;entryY=0.5;entryDx=0;entryDy=0;" edge="1" parent="1" source="5KTpDNGWYPe7FhS2_ilG-13" target="5KTpDNGWYPe7FhS2_ilG-15">
          <mxGeometry relative="1" as="geometry" />
        </mxCell>
        <mxCell id="5KTpDNGWYPe7FhS2_ilG-13" value="meta (multus)" style="rounded=0;whiteSpace=wrap;html=1;fillColor=#d5e8d4;strokeColor=#82b366;" vertex="1" parent="1">
          <mxGeometry x="461" y="235" width="90" height="30" as="geometry" />
        </mxCell>
        <mxCell id="5KTpDNGWYPe7FhS2_ilG-14" value="bridge" style="rounded=0;whiteSpace=wrap;html=1;fillColor=#d5e8d4;strokeColor=#82b366;" vertex="1" parent="1">
          <mxGeometry x="551" y="275" width="90" height="30" as="geometry" />
        </mxCell>
        <mxCell id="5KTpDNGWYPe7FhS2_ilG-15" value="ipam" style="rounded=0;whiteSpace=wrap;html=1;fillColor=#d5e8d4;strokeColor=#82b366;" vertex="1" parent="1">
          <mxGeometry x="661" y="235" width="90" height="30" as="geometry" />
        </mxCell>
        <mxCell id="5KTpDNGWYPe7FhS2_ilG-16" value="sriov" style="rounded=0;whiteSpace=wrap;html=1;fillColor=#d5e8d4;strokeColor=#82b366;" vertex="1" parent="1">
          <mxGeometry x="551" y="325" width="90" height="30" as="geometry" />
        </mxCell>
        <mxCell id="5KTpDNGWYPe7FhS2_ilG-17" value="calico/cilium" style="rounded=0;whiteSpace=wrap;html=1;fillColor=#d5e8d4;strokeColor=#82b366;" vertex="1" parent="1">
          <mxGeometry x="551" y="375" width="90" height="30" as="geometry" />
        </mxCell>
        <mxCell id="5KTpDNGWYPe7FhS2_ilG-18" style="edgeStyle=orthogonalEdgeStyle;rounded=0;orthogonalLoop=1;jettySize=auto;html=1;entryX=0;entryY=0.5;entryDx=0;entryDy=0;exitX=0.5;exitY=1;exitDx=0;exitDy=0;" edge="1" parent="1" source="5KTpDNGWYPe7FhS2_ilG-13" target="5KTpDNGWYPe7FhS2_ilG-16">
          <mxGeometry relative="1" as="geometry">
            <mxPoint x="516" y="275" as="sourcePoint" />
            <mxPoint x="561" y="300" as="targetPoint" />
          </mxGeometry>
        </mxCell>
        <mxCell id="5KTpDNGWYPe7FhS2_ilG-19" style="edgeStyle=orthogonalEdgeStyle;rounded=0;orthogonalLoop=1;jettySize=auto;html=1;entryX=0;entryY=0.5;entryDx=0;entryDy=0;exitX=0.5;exitY=1;exitDx=0;exitDy=0;" edge="1" parent="1" source="5KTpDNGWYPe7FhS2_ilG-13" target="5KTpDNGWYPe7FhS2_ilG-17">
          <mxGeometry relative="1" as="geometry">
            <mxPoint x="526" y="285" as="sourcePoint" />
            <mxPoint x="571" y="310" as="targetPoint" />
          </mxGeometry>
        </mxCell>
        <mxCell id="5KTpDNGWYPe7FhS2_ilG-20" value="netavark" style="rounded=1;whiteSpace=wrap;html=1;fillColor=#d5e8d4;strokeColor=#82b366;" vertex="1" parent="1">
          <mxGeometry x="155" y="375" width="100" height="30" as="geometry" />
        </mxCell>
        <mxCell id="5KTpDNGWYPe7FhS2_ilG-21" style="edgeStyle=orthogonalEdgeStyle;rounded=0;orthogonalLoop=1;jettySize=auto;html=1;entryX=0;entryY=0.5;entryDx=0;entryDy=0;" edge="1" parent="1" source="5KTpDNGWYPe7FhS2_ilG-23" target="5KTpDNGWYPe7FhS2_ilG-13">
          <mxGeometry relative="1" as="geometry" />
        </mxCell>
        <mxCell id="5KTpDNGWYPe7FhS2_ilG-22" style="edgeStyle=orthogonalEdgeStyle;rounded=0;orthogonalLoop=1;jettySize=auto;html=1;entryX=0.5;entryY=0;entryDx=0;entryDy=0;" edge="1" parent="1" source="5KTpDNGWYPe7FhS2_ilG-23" target="5KTpDNGWYPe7FhS2_ilG-20">
          <mxGeometry relative="1" as="geometry" />
        </mxCell>
        <mxCell id="5KTpDNGWYPe7FhS2_ilG-23" value="Network backend?" style="rhombus;whiteSpace=wrap;html=1;fillColor=#f8cecc;strokeColor=#b85450;" vertex="1" parent="1">
          <mxGeometry x="160" y="220" width="90" height="60" as="geometry" />
        </mxCell>
      </root>
    </mxGraphModel>
  </diagram>
</mxfile>
